<?xml version="1.0" encoding="utf-8"?>
<!-- Generator: Adobe Illustrator 27.0.0, SVG Export Plug-In . SVG Version: 6.00 Build 0)  -->
<svg version="1.1" id="Layer_1" xmlns="http://www.w3.org/2000/svg" xmlns:xlink="http://www.w3.org/1999/xlink" x="0px" y="0px"
	 viewBox="0 0 206.9 67.8" style="enable-background:new 0 0 206.9 67.8;" xml:space="preserve">
<style type="text/css">
	.st0{fill:#38362D;}
	.st1{fill:#1B180C;}
	.st2{fill:#2A251A;}
	.st3{fill:#769B2F;}
	.st4{fill:#8FC73E;}
	.st5{enable-background:new    ;}
</style>
<g id="Group_10450" transform="translate(-631 -384)">
	<g id="Group_10449" transform="translate(631 384)">
		<g id="logo-itb-2022">
			<g id="Group_2088">
				<g id="Group_15">
					<path id="Path_744" class="st0" d="M29,0L0.8,17.2L29,35.4l28.3-18.2L29,0z M21.6,17.5L29,13l7.4,4.5L29,22.3L21.6,17.5z"/>
					<path id="Path_745" class="st1" d="M29.4,36.2v31.6l28.3-18V18.2L29.4,36.2z M47.9,44.7l-7,4.5v-7.9l7-4.3V44.7z"/>
					<path id="Path_746" class="st2" d="M0,18.2v31.6l28.3,18V36.2L0,18.2z M18,49.2l-7-4.3v-7.9l7,4.5V49.2z"/>
					<path id="Path_747" class="st3" d="M44.9,61.2l3.8-2.3l-2.5-1.7l-3.8,2.4L44.9,61.2z"/>
					<path id="Path_748" class="st4" d="M44.9,61.2l3.8-2.3V44.8l-3.8,2.4V61.2z"/>
					<path id="Path_749" class="st4" d="M41.6,40.8l-0.7,0.4v3.7l4,2.3l3.8-2.4L41.6,40.8z"/>
					<path id="Path_750" class="st3" d="M18,42.2l-8.4,5.7l3.3,2l5.2-3.4V42.2z"/>
					<path id="Path_751" class="st3" d="M29,22.3l1-0.6V13l-3.4-1.9l0.1,9.7L29,22.3z"/>
					<path id="Path_752" class="st4" d="M30,13l-3.4-1.9l-17,10.2l3.3,2.3L30,13z"/>
					<path id="Path_753" class="st4" d="M12.8,49.9l-3.3-2V21.3l3.3,2.3V49.9z"/>
				</g>
			</g>
		</g>
	</g>
	<g id="Group_10448" transform="translate(696.905 393.637)">
		<g class="st5">
			<path class="st4" d="M4.1,18.2h9.5l-2.6,16.3h10.4L20.4,42h-20L4.1,18.2z"/>
			<path class="st4" d="M34,18.2h11.4L50.7,42h-9.8l-0.5-3.7h-8.1L30.5,42H21L34,18.2z M39.9,32.8l-1.3-8.1h-0.1l-4,8.1H39.9z"/>
			<path class="st4" d="M58.1,25.5h-7l1.2-7.3h23.6l-1.2,7.3h-7.1L65,42h-9.5L58.1,25.5z"/>
			<path class="st4" d="M82.8,18.2h11.4L99.5,42h-9.8l-0.5-3.7h-8.1L79.3,42h-9.5L82.8,18.2z M88.7,32.8l-1.3-8.1h-0.1l-4,8.1H88.7z
				"/>
			<path class="st4" d="M104.7,18.2h12.2l3.4,14.3h0.1l8-14.3h12.2L136.9,42h-8.7l2.2-13.7l-0.1,0L122.7,42h-7.4l-3.5-13.7h-0.1
				L109.7,42H101L104.7,18.2z"/>
		</g>
		<g id="Group_10447" transform="translate(1.292 0)">
			<g class="st5">
				<path class="st4" d="M1.7,2h4L4.1,12.1h-4L1.7,2z"/>
				<path class="st4" d="M6.9,2h4.7l2.8,5.9h0L15.4,2h3.7l-1.6,10.1h-4.7L10,6.2h0l-0.9,5.9H5.3L6.9,2z"/>
				<path class="st4" d="M22.4,5.1h-3L20,2h10l-0.5,3.1h-3l-1.1,7h-4L22.4,5.1z"/>
				<path class="st4" d="M29.5,8c0-3.8,3.3-6.3,7.3-6.3c3.6,0,5.8,1.7,5.8,4.5c0,3.8-3.3,6.3-7.3,6.3C31.7,12.4,29.5,10.7,29.5,8z
					 M38.5,6.6c0-1.1-0.8-1.8-2.1-1.8c-1.6,0-2.8,1.2-2.8,2.8c0,1.1,0.8,1.8,2.1,1.8C37.4,9.3,38.5,8.1,38.5,6.6z"/>
				<path class="st4" d="M48.9,5.1h-3L46.4,2h10l-0.5,3.1h-3l-1.1,7h-4L48.9,5.1z"/>
				<path class="st4" d="M57.3,2h4l-0.5,3.4h3.3L64.6,2h4l-1.6,10.1h-4l0.6-3.8h-3.3l-0.6,3.8h-4L57.3,2z"/>
				<path class="st4" d="M69.9,2h8.7l-0.4,2.7h-4.8l-0.2,1.1h4.3l-0.4,2.3h-4.3l-0.2,1.2h5l-0.4,2.7h-8.9L69.9,2z"/>
				<path class="st4" d="M82.2,2H89c2.3,0,3.6,1,3.6,2.5c0,1.1-0.8,2.1-2,2.5v0c1,0.3,1.5,1,1.5,1.9c0,1.8-1.8,3.2-4.3,3.2h-7.3
					L82.2,2z M87,9.7c0.7,0,1.1-0.4,1.1-1c0-0.5-0.3-0.7-0.9-0.7h-2L85,9.7H87z M87.5,6c0.7,0,1.1-0.4,1.1-0.9
					c0-0.4-0.3-0.7-0.9-0.7h-1.9L85.6,6H87.5z"/>
			</g>
			<g class="st5">
				<path class="st4" d="M114.7,6.8L111.3,2h4.3l1.7,2.5l2.4-2.5h4.4l-5,5l3.4,5.1h-4.4l-1.7-2.6l-2.4,2.6h-4.3L114.7,6.8z"/>
			</g>
			<g id="Group_2092" transform="translate(93.37)">
				<path id="Path_763" class="st4" d="M9.5,15.1c-3.8,0-7-3.1-7-7c0-3.8,3.1-7,7-7c1.9,0,3.7,0.7,5,2.1C11.9-0.3,6.8-1.1,3.3,1.5
					c-3.6,2.6-4.4,7.6-1.7,11.2c2.6,3.6,7.6,4.4,11.2,1.7c0.2-0.1,0.3-0.3,0.5-0.4C12.1,14.8,10.8,15.1,9.5,15.1"/>
				<path id="Path_764" class="st4" d="M11.9,2.3c2.7,1.6,3.6,5,2,7.7c-1.6,2.7-5,3.6-7.7,2c-1.5-0.9-2.6-2.5-2.8-4.2
					c0,0.1,0,0.2,0,0.3c0,3.5,2.8,6.3,6.3,6.3c3.5,0,6.3-2.8,6.3-6.3C15.9,5.6,14.3,3.2,11.9,2.3"/>
				<path id="Path_765" class="st4" d="M8.9,2.8c-2,0-3.9,1.3-4.4,3.3C5.4,4,7.8,3.1,9.8,4c2.1,0.9,3,3.3,2.1,5.4
					c-0.8,1.8-2.8,2.8-4.8,2.3c2.4,1,5.1-0.1,6.1-2.5S13,4.1,10.7,3.1C10.1,2.9,9.5,2.8,8.9,2.8"/>
			</g>
		</g>
	</g>
</g>
</svg>
